<?xml version="1.0" standalone="no"?>
<!DOCTYPE svg PUBLIC "-//W3C//DTD SVG 20010904//EN"
 "http://www.w3.org/TR/2001/REC-SVG-20010904/DTD/svg10.dtd">
<svg version="1.0" xmlns="http://www.w3.org/2000/svg"
 width="512.000000pt" height="512.000000pt" viewBox="0 0 512.000000 512.000000"
 preserveAspectRatio="xMidYMid meet">

<g transform="translate(0.000000,512.000000) scale(0.100000,-0.100000)"
fill="#000000" stroke="none">
<path d="M2435 5105 c-141 -31 -232 -81 -330 -180 -108 -110 -171 -250 -182
-401 l-6 -81 -451 -82 c-248 -45 -461 -89 -473 -97 -12 -7 -26 -28 -31 -46 -5
-18 -224 -738 -486 -1600 -314 -1033 -476 -1581 -476 -1610 0 -24 7 -83 15
-133 54 -331 265 -616 570 -767 509 -254 1130 -40 1387 477 61 123 108 305
108 422 0 30 -152 546 -465 1577 -256 842 -465 1537 -465 1543 0 6 30 16 68
23 37 6 211 38 388 71 176 32 327 59 335 59 8 0 22 -21 32 -49 25 -70 112
-187 182 -244 124 -100 290 -155 439 -144 324 23 580 275 603 593 l6 80 381
72 c209 39 381 70 382 69 0 -1 -207 -688 -462 -1527 -267 -878 -463 -1542
-463 -1565 -1 -22 6 -80 14 -130 54 -331 265 -616 570 -767 509 -254 1130 -40
1387 477 61 122 108 305 108 422 0 68 -963 3232 -991 3256 -12 9 -31 17 -44
17 -12 0 -218 -36 -458 -80 -239 -44 -442 -80 -450 -80 -8 0 -18 12 -22 28
-14 58 -81 160 -149 227 -148 147 -373 214 -571 170z m238 -160 c89 -23 156
-62 224 -131 185 -185 189 -474 8 -663 -189 -198 -487 -201 -681 -7 -146 147
-184 358 -97 544 96 205 327 314 546 257z m1831 -1858 c231 -760 421 -1388
424 -1395 3 -9 -31 -12 -149 -12 l-154 0 -250 250 c-193 193 -257 251 -282
256 -31 6 -41 -3 -296 -250 l-265 -256 -152 0 c-117 0 -151 3 -148 13 3 6 193
634 424 1394 230 761 421 1383 424 1383 3 0 194 -622 424 -1383z m-3040 -560
c231 -760 421 -1388 424 -1395 3 -9 -34 -12 -165 -12 l-170 0 -17 63 c-24 84
-68 159 -135 226 -274 273 -741 155 -854 -216 l-22 -73 -169 0 c-130 0 -167 3
-164 13 3 6 193 634 424 1394 230 761 421 1383 424 1383 3 0 194 -622 424
-1383z m2776 -692 l155 -155 -315 0 -315 0 155 155 c85 85 157 155 160 155 3
0 75 -70 160 -155z m708 -377 c-43 -291 -268 -569 -548 -677 -263 -102 -563
-71 -797 81 -203 131 -357 367 -391 596 l-9 62 877 0 877 0 -9 -62z m-3808
-74 c68 -20 115 -50 168 -108 38 -41 82 -120 82 -147 0 -5 -144 -9 -350 -9
-206 0 -350 4 -350 9 0 27 44 106 82 147 100 109 233 148 368 108z m768 -486
c-34 -229 -188 -465 -391 -596 -288 -187 -666 -187 -954 0 -203 131 -357 367
-391 596 l-9 62 877 0 877 0 -9 -62z"/>
</g>
</svg>
